# xmcd
#
# Track frame offsets:
#	150
#	10405
#	22685
#	36485
#	50795
#	61445
#	81120
#	94785
#	110225
#	125425
#	138787
#	158090
#	167780
#	181860
#	196742
#	212542
#	231187
#	245360
#	256277
#	266927
#
# Disc length: 3712 seconds
#
# Revision: 1
# Processed by: cddbd v1.4PL0 Copyright (c) Steve Scherf et al.
# Submitted via: audiograbber 1.82.02
#
DISCID=140e7e14
DTITLE=Jimmy Walker and Erwin Helfer - Rough and Ready
DYEAR=1900
DGENRE=
TTITLE0=Rough and Ready
TTITLE1=Give Me 5 Cents Worth of Love
TTITLE2=Goin' Back to Texas
TTITLE3=Give Me 10 Cents Worth of Love
TTITLE4=Sneaky Pete
TTITLE5=Walkin' with Walker
TTITLE6=Mama Told Me
TTITLE7=Soul Woogie
TTITLE8=Rough and Ready #2
TTITLE9=Makin' the Changes
TTITLE10=Ella Mae
TTITLE11=Fringe Benefit
TTITLE12=Sweet Patootie
TTITLE13=Mr. Freddie
TTITLE14=Four O'Clock Blues
TTITLE15=On Your Way
TTITLE16=Mean and Evil
TTITLE17=Dirty Dozens
TTITLE18=One Step Beyond
TTITLE19=Four O'Clock Blues
EXTD=
EXTT0=
EXTT1=
EXTT2=
EXTT3=
EXTT4=
EXTT5=
EXTT6=
EXTT7=
EXTT8=
EXTT9=
EXTT10=
EXTT11=
EXTT12=
EXTT13=
EXTT14=
EXTT15=
EXTT16=
EXTT17=
EXTT18=
EXTT19=
PLAYORDER=
